<svg width="25" height="24" viewBox="0 0 25 24" fill="none" xmlns="http://www.w3.org/2000/svg">
<g clip-path="url(#clip0_1765_12091)">
<path d="M5.5 19H6.914L16.228 9.68596L14.814 8.27196L5.5 17.586V19ZM21.5 21H3.5V16.757L16.935 3.32196C17.1225 3.13449 17.3768 3.02917 17.642 3.02917C17.9072 3.02917 18.1615 3.13449 18.349 3.32196L21.178 6.15096C21.3655 6.33849 21.4708 6.5928 21.4708 6.85796C21.4708 7.12313 21.3655 7.37743 21.178 7.56496L9.743 19H21.5V21ZM16.228 6.85796L17.642 8.27196L19.056 6.85796L17.642 5.44396L16.228 6.85796V6.85796Z" fill="#06343C"/>
</g>
<defs>
<clipPath id="clip0_1765_12091">
<rect width="24" height="24" fill="white" transform="translate(0.5)"/>
</clipPath>
</defs>
</svg>
