<svg width="24" height="25" viewBox="0 0 24 25" fill="none" xmlns="http://www.w3.org/2000/svg">
<g clip-path="url(#clip0_1699_1621)">
<path d="M15 4.5H5V20.5H19V8.5H15V4.5ZM3 3.492C3 2.944 3.447 2.5 3.999 2.5H16L21 7.5V21.493C21.0009 21.6243 20.976 21.7545 20.9266 21.8762C20.8772 21.9979 20.8043 22.1087 20.7121 22.2022C20.6199 22.2957 20.5101 22.3701 20.3892 22.4212C20.2682 22.4723 20.1383 22.4991 20.007 22.5H3.993C3.73038 22.4982 3.47902 22.3931 3.29322 22.2075C3.10742 22.0219 3.00209 21.7706 3 21.508V3.492ZM13 12.5V16.5H11V12.5H8L12 8.5L16 12.5H13Z" fill="#06343C"/>
</g>
<defs>
<clipPath id="clip0_1699_1621">
<rect width="24" height="24" fill="white" transform="translate(0 0.5)"/>
</clipPath>
</defs>
</svg>
