<svg width="31" height="31" viewBox="0 0 31 31" fill="none" xmlns="http://www.w3.org/2000/svg">
<g clip-path="url(#clip0_1239_8918)">
<path d="M15.5 3.43604C22.4 3.43604 28 9.03604 28 15.936C28 22.836 22.4 28.436 15.5 28.436C8.6 28.436 3 22.836 3 15.936C3 9.03604 8.6 3.43604 15.5 3.43604ZM15.5 25.936C21.025 25.936 25.5 21.461 25.5 15.936C25.5 10.411 21.025 5.93604 15.5 5.93604C9.975 5.93604 5.5 10.411 5.5 15.936C5.5 21.461 9.975 25.936 15.5 25.936ZM15.5 14.686H20.5V17.186H15.5V20.936L10.5 15.936L15.5 10.936V14.686Z" fill="#06343C"/>
</g>
<defs>
<clipPath id="clip0_1239_8918">
<rect width="30" height="30" fill="white" transform="translate(0.5 0.936035)"/>
</clipPath>
</defs>
</svg>
