<svg width="19" height="18" viewBox="0 0 19 18" fill="none" xmlns="http://www.w3.org/2000/svg">
<path d="M13.2106 2.24995L11.7106 3.74995H4.39282V14.25H14.8928V6.9322L16.3928 5.4322V15C16.3928 15.1989 16.3138 15.3896 16.1732 15.5303C16.0325 15.6709 15.8417 15.75 15.6428 15.75H3.64282C3.44391 15.75 3.25314 15.6709 3.11249 15.5303C2.97184 15.3896 2.89282 15.1989 2.89282 15V2.99995C2.89282 2.80104 2.97184 2.61027 3.11249 2.46962C3.25314 2.32897 3.44391 2.24995 3.64282 2.24995H13.2106ZM16.0066 1.57495L17.0678 2.63695L10.1738 9.53095L9.11482 9.5332L9.11332 8.47045L16.0066 1.57495Z" fill="#F99D1C"/>
</svg>
