<svg width="18" height="18" viewBox="0 0 18 18" fill="none" xmlns="http://www.w3.org/2000/svg">
<g clip-path="url(#clip0_1708_9894)">
<path d="M16.0834 14.229H1.91675V12.8123H2.62508V7.87596C2.62508 4.3428 5.47966 1.479 9.00008 1.479C12.5205 1.479 15.3751 4.3428 15.3751 7.87596V12.8123H16.0834V14.229ZM4.04175 12.8123H13.9584V7.87596C13.9584 5.1255 11.7385 2.89567 9.00008 2.89567C6.26166 2.89567 4.04175 5.1255 4.04175 7.87596V12.8123ZM7.22925 14.9373H10.7709C10.7709 15.407 10.5843 15.8574 10.2522 16.1895C9.92015 16.5216 9.46974 16.7082 9.00008 16.7082C8.53043 16.7082 8.08001 16.5216 7.74791 16.1895C7.41582 15.8574 7.22925 15.407 7.22925 14.9373V14.9373Z" fill="#F99D1C"/>
</g>
<defs>
<clipPath id="clip0_1708_9894">
<rect width="17" height="17" fill="white" transform="translate(0.5 0.0625)"/>
</clipPath>
</defs>
</svg>
