<svg width="18" height="19" viewBox="0 0 18 19" fill="none" xmlns="http://www.w3.org/2000/svg">
<g clip-path="url(#clip0_1708_9969)">
<path d="M9 16.5625C4.85775 16.5625 1.5 13.2047 1.5 9.0625C1.5 4.92025 4.85775 1.5625 9 1.5625C13.1422 1.5625 16.5 4.92025 16.5 9.0625C16.5 13.2047 13.1422 16.5625 9 16.5625ZM9 15.0625C10.5913 15.0625 12.1174 14.4304 13.2426 13.3051C14.3679 12.1799 15 10.6538 15 9.0625C15 7.4712 14.3679 5.94508 13.2426 4.81986C12.1174 3.69464 10.5913 3.0625 9 3.0625C7.4087 3.0625 5.88258 3.69464 4.75736 4.81986C3.63214 5.94508 3 7.4712 3 9.0625C3 10.6538 3.63214 12.1799 4.75736 13.3051C5.88258 14.4304 7.4087 15.0625 9 15.0625V15.0625ZM8.25 11.3125H9.75V12.8125H8.25V11.3125ZM9.75 10.0787V10.5625H8.25V9.4375C8.25 9.23859 8.32902 9.04782 8.46967 8.90717C8.61032 8.76652 8.80109 8.6875 9 8.6875C9.21306 8.68749 9.42173 8.62697 9.60174 8.513C9.78175 8.39902 9.9257 8.23627 10.0168 8.04369C10.108 7.8511 10.1425 7.6366 10.1165 7.42513C10.0905 7.21367 10.005 7.01394 9.86987 6.84918C9.73478 6.68443 9.55568 6.56142 9.35342 6.49448C9.15115 6.42753 8.93403 6.4194 8.72732 6.47103C8.52061 6.52266 8.33281 6.63192 8.18578 6.78611C8.03874 6.9403 7.93851 7.13307 7.89675 7.342L6.42525 7.04725C6.51647 6.59131 6.72713 6.16778 7.03569 5.81994C7.34425 5.4721 7.73964 5.21244 8.18144 5.06749C8.62325 4.92254 9.09562 4.89751 9.55026 4.99496C10.0049 5.09241 10.4255 5.30884 10.7691 5.62212C11.1127 5.9354 11.3669 6.3343 11.5058 6.77805C11.6447 7.22179 11.6633 7.69446 11.5596 8.14773C11.456 8.601 11.2338 9.01862 10.9159 9.3579C10.5979 9.69717 10.1956 9.94593 9.75 10.0787V10.0787Z" fill="#F99D1C"/>
</g>
<defs>
<clipPath id="clip0_1708_9969">
<rect width="18" height="18" fill="white" transform="translate(0 0.0625)"/>
</clipPath>
</defs>
</svg>
